PathFileType	4	(X/Y/Z)	Patient4_TMGait_0pt2_02_right_01.trc.trc
DataRate	CameraRate	NumFrames	NumMarkers	Units	OrigDataRate	OrigDataStartFrame	OrigNumFrames
45.602605863192	45.602605863192	4	33	mm	45.602605863192	124	       141
Frame#	Time	R.Midfoot.Superior			Sacral			L.Shoulder			Chest			R.Shoulder			Neck			R.ASIS			L.ASIS			R.Thigh.Superior			R.Thigh.Lateral			R.Thigh.Inferior			R.Patella			L.Thigh.Superior			L.Thigh.Lateral			L.Thigh.Inferior			L.Patella			L.Shank.Superior			L.Shank.Lateral			L.Shank.Inferior			R.Shank.Superior			R.Shank.Lateral			R.Shank.Inferior			R.Heel			R.Midfoot.Lateral			R.Toe			L.Heel			L.Midfoot.Lateral			L.Midfoot.Superior			L.Toe			L.Elbow			L.Wrist			R.Elbow			R.Wrist			
		X1	Y1	Z1	X2	Y2	Z2	X3	Y3	Z3	X4	Y4	Z4	X5	Y5	Z5	X6	Y6	Z6	X7	Y7	Z7	X8	Y8	Z8	X9	Y9	Z9	X10	Y10	Z10	X11	Y11	Z11	X12	Y12	Z12	X13	Y13	Z13	X14	Y14	Z14	X15	Y15	Z15	X16	Y16	Z16	X17	Y17	Z17	X18	Y18	Z18	X19	Y19	Z19	X20	Y20	Z20	X21	Y21	Z21	X22	Y22	Z22	X23	Y23	Z23	X24	Y24	Z24	X25	Y25	Z25	X26	Y26	Z26	X27	Y27	Z27	X28	Y28	Z28	X29	Y29	Z29	X30	Y30	Z30	X31	Y31	Z31	X32	Y32	Z32	X33	Y33	Z33	

124	3.467214285714	1150.387128010913	103.812020025832	567.758187083842	805.140020689814	1004.421429572871	355.712542904440	1037.953381358210	1436.906592684907	244.746065919889	1081.805929655061	1362.330796957883	426.127318371060	951.143471304995	1433.817961118010	568.144433604598	968.165427916340	1493.052398138254	392.756085806387	1001.988464131909	938.806945505553	525.512667112225	1051.027768553086	961.390378818058	255.363549506024	1071.475953062696	753.748854947698	506.530414094880	1005.466763129355	638.082210184298	569.815053526671	1096.746936858044	592.221213375320	499.810804355947	1117.679245481741	509.399153285356	515.996986485361	1070.772048052078	736.802649177108	292.790400425423	982.429894700717	621.712756245199	222.361555319970	1046.369607525956	542.868759185782	301.993433253957	1038.043926366614	473.187916815659	312.380117615462	1001.244785403785	402.828186547310	302.176039315188	904.158691686440	297.695535587723	246.036657467200	931.558021017527	185.073803179295	325.790862077789	1096.661303309412	420.175225828953	528.861827088725	1033.372689996474	315.377901873666	598.553419037344	1092.831711299808	220.475720227709	550.117645507612	979.746998974737	45.171183588082	533.326901386347	1065.485560110918	37.832438829201	604.915945861265	1270.905865219608	56.380342294850	589.588145245883	786.250384236165	38.451859325844	362.743251340690	862.156452228794	35.228306620080	284.186963852330	945.683249030522	95.493825539543	313.973901925003	1074.355940012866	42.682782001154	288.118765341578	1229.132689551232	1183.912117893718	90.825229527180	1485.864607289259	1162.189591323647	137.929013690829	763.596701271877	1133.624084226969	615.081384909133	725.911078464490	874.498922753804	591.939388254605	
125	3.489142857143	1146.158115173383	102.609174201031	567.084270891222	806.557212719123	1003.859241254938	357.946814007523	1039.579873157069	1436.481579325984	249.288085652232	1081.764978723703	1362.125284150927	431.057376025960	949.830554929870	1433.627748399888	571.833829493416	968.381998821672	1492.628637376345	396.658199172879	1001.977132149333	937.935960510889	529.116821860632	1053.210526096525	961.274914475857	259.553555153049	1071.209688651709	751.921405544497	510.101202838104	1003.231318664713	636.024665447827	571.407642902805	1095.246884467608	590.543456090140	502.112730732295	1114.634450234823	507.725234138537	517.199017747735	1070.964377450523	735.858726783314	295.906802775630	981.527616202829	621.886497453366	224.354040118877	1043.972483187161	542.092035004705	303.850606524415	1034.807741563909	472.487011126322	313.865039879502	997.900692878014	402.563845117276	303.303109925541	900.426664058435	297.963523789434	246.662456074410	927.505843217283	185.008095565553	326.145052618481	1093.917607393787	418.181575368992	529.922146644108	1030.346950857865	313.396275850784	599.094913953622	1089.420691141363	218.661693482275	550.211385743642	975.697253024588	44.435309875839	533.085772759493	1061.192172247944	37.642318216077	605.015827821469	1266.671981899506	55.276105326758	589.716514542335	781.855994479955	38.425072329210	362.707012675699	857.775893465970	35.188040283043	284.165605704050	941.317798625258	95.492942908538	313.983118449297	1069.975511997190	42.690942815647	288.129975459701	1234.094974996094	1187.147199939207	95.612064997249	1491.224702318387	1174.313061160540	143.474903404468	763.112181258577	1132.702482529191	615.823927130278	726.657018389318	873.362515430637	590.361451788121	
126	3.511071428571	1141.266595643484	101.491801064888	566.275987641688	808.135043288975	1003.358248044758	360.499591293140	1041.218547841767	1436.111024254939	253.983705335187	1081.940086705140	1361.959348948592	436.105017542336	948.815952607273	1433.403153462201	575.741144383479	968.738550047448	1492.243387214982	400.773457232648	1002.273188170490	937.200359018368	532.923233004881	1055.502196206243	961.175170527349	263.927979831435	1071.460406086556	750.342598824643	513.439016538957	1001.930712393327	634.252486100300	573.014609949535	1094.446341315178	589.146550712771	504.131376015867	1112.374705513141	506.117045135265	518.303936804915	1071.289857100800	734.909361359942	299.256157884257	980.753185587294	622.063609501263	226.594445116124	1041.681194602070	541.329095051660	305.968891239227	1031.724115396274	471.787298501805	315.570942806955	994.654678636363	402.322958941171	304.623398067008	896.732435075760	298.326140089126	247.443345477492	923.468626395789	184.952225767518	326.541434349367	1091.652122045053	416.244029484334	530.888088581783	1027.528474065086	311.624556812326	599.598004592648	1085.805257571051	216.848682602641	550.137201530761	970.888532719500	43.779727407592	532.751998127457	1056.195755276062	37.497635340279	604.988256732268	1261.809980873044	54.204807508620	589.647583504442	777.473716492895	38.408117662137	362.679176212473	853.410180116479	35.157664774070	284.160255600114	936.967754063487	95.487298011703	314.004116515376	1065.608367143344	42.680700401846	288.136646133611	1238.463414155529	1189.905067597667	100.495871251800	1495.671377201885	1184.909896952290	149.075351150388	763.397741766237	1131.378856114683	617.351905233161	728.617190626075	871.792639998045	590.098815102577	
127	3.533000000000	1136.106379852844	100.521063630074	565.479755985829	809.817602476998	1002.971720638992	363.381751323462	1042.914968454187	1435.804247262469	258.771149083799	1082.346618647630	1361.859195474909	441.227127315416	948.108911123067	1433.226278970396	579.800158847554	969.265215152135	1491.936906482286	405.025798470130	1002.838482651127	936.661428186344	536.957391853186	1057.833775537850	961.096364329877	268.482696605804	1072.161673633759	749.108802321979	516.580948375124	1001.547029518761	632.850800603359	574.741056922799	1094.309445218597	588.079745183263	505.974024834653	1110.915104375434	504.665093651350	519.418399116637	1071.657430791079	733.969980172264	302.812724135110	980.011705078582	622.264955691567	229.069923510744	1039.443843748754	540.601399535960	308.311718578535	1028.747945921478	471.113355811009	317.465652806001	991.470317385021	402.129982340314	306.116344700953	893.042503950016	298.799930608394	248.386244505158	919.434807321317	184.923599284258	326.973526694977	1089.932164626625	414.471782750234	531.840556240700	1025.099565187285	310.113526122435	600.172013425645	1082.237075964647	215.138294617843	549.997717942300	965.727849259852	43.220845492858	532.407636560765	1050.905274450817	37.378139880374	604.896751679260	1256.704804011520	53.216713624133	589.462114651411	773.100884493970	38.421155788108	362.663391790443	849.054352339181	35.149791945196	284.178098432381	932.632327006450	95.478699759305	314.039078676591	1061.248908227018	42.639384274220	288.137488264918	1242.340703463450	1192.200276965723	105.434567463957	1499.403135865223	1193.967525156797	154.667301025983	764.246678670694	1129.900988503259	619.639641128080	731.475890359888	870.046726797283	591.225700789528	
